<?xml version="1.0" standalone="no"?>
<!DOCTYPE svg PUBLIC "-//W3C//DTD SVG 20010904//EN"
 "http://www.w3.org/TR/2001/REC-SVG-20010904/DTD/svg10.dtd">
<svg version="1.0" xmlns="http://www.w3.org/2000/svg"
 width="2193.000000pt" height="342.000000pt" viewBox="0 0 2193.000000 342.000000"
 preserveAspectRatio="xMidYMid meet">

<g transform="translate(0.000000,342.000000) scale(0.100000,-0.100000)"
fill="#ffffff" stroke="none">
<path d="M0 1680 l0 -1500 1350 0 1350 0 0 810 0 810 -675 0 -675 0 0 -180 0
-180 175 0 175 0 0 -180 0 -180 -350 0 -350 0 0 550 0 550 850 0 850 0 0 500
0 500 -1350 0 -1350 0 0 -1500z"/>
<path d="M3300 1680 l0 -1500 500 0 500 0 0 1500 0 1500 -500 0 -500 0 0
-1500z"/>
<path d="M4680 2680 l0 -500 660 0 660 0 0 500 0 500 -660 0 -660 0 0 -500z"/>
<path d="M6600 1680 l0 -1500 500 0 500 0 0 630 0 630 350 0 350 0 0 -630 0
-630 500 0 500 0 0 1500 0 1500 -1350 0 -1350 0 0 -1500z m1700 310 l0 -190
-350 0 -350 0 0 190 0 190 350 0 350 0 0 -190z"/>
<path d="M10321 3075 c-81 -23 -145 -62 -205 -125 -97 -101 -138 -217 -138
-385 -1 -171 38 -285 131 -387 87 -95 193 -138 341 -138 208 0 350 92 411 268
15 42 21 86 22 167 l2 110 -207 3 -208 2 0 -75 0 -75 119 0 118 0 -8 -45 c-11
-60 -31 -96 -73 -132 -47 -42 -98 -58 -181 -57 -76 1 -150 30 -191 76 -64 69
-100 204 -90 326 18 195 124 312 284 312 101 0 178 -46 223 -132 l19 -38 95 0
94 0 -15 53 c-33 112 -130 211 -253 258 -74 28 -215 35 -290 14z"/>
<path d="M19670 3072 c-162 -43 -280 -169 -326 -352 -23 -91 -15 -280 15 -370
44 -128 143 -236 258 -281 80 -31 237 -38 319 -14 142 40 260 165 289 303 l7
32 -95 0 -95 0 -7 -27 c-12 -51 -51 -98 -106 -128 -46 -25 -64 -29 -129 -29
-61 0 -84 5 -127 27 -85 44 -136 131 -152 256 -18 139 13 269 80 346 123 140
381 101 430 -65 l12 -40 95 0 94 0 -7 38 c-12 64 -57 145 -109 198 -109 109
-280 149 -446 106z"/>
<path d="M15510 2565 l0 -516 268 3 c243 3 272 5 318 24 76 31 120 69 150 131
33 66 36 163 9 231 -22 54 -95 118 -153 135 l-45 13 57 28 c37 18 66 41 81 64
72 110 43 262 -65 337 -73 51 -115 58 -377 63 l-243 4 0 -517z m482 330 c39
-29 61 -80 55 -127 -13 -96 -70 -127 -234 -128 l-113 0 0 141 0 141 133 -4
c113 -3 136 -6 159 -23z m4 -411 c75 -37 110 -124 78 -190 -36 -71 -56 -79
-225 -82 l-149 -3 0 152 0 152 128 -5 c99 -4 137 -9 168 -24z"/>
<path d="M18670 3058 c-17 -39 -350 -992 -350 -1000 0 -5 43 -7 96 -6 l96 3
42 120 43 120 194 3 194 2 41 -122 40 -123 101 -3 100 -3 -173 493 c-96 271
-178 503 -184 516 -9 21 -15 22 -120 22 -105 0 -111 -1 -120 -22z m190 -390
c36 -106 66 -199 68 -205 3 -10 -30 -13 -138 -13 -110 0 -141 3 -137 13 2 6
33 99 68 205 35 105 66 192 69 192 3 0 35 -87 70 -192z"/>
<path d="M20407 3073 c-4 -3 -7 -235 -7 -515 l0 -508 90 0 90 0 2 358 3 357
144 -357 143 -358 67 0 66 0 139 345 c77 190 143 348 148 351 4 3 8 -153 8
-345 l0 -351 90 0 90 0 -2 513 -3 512 -111 3 -112 3 -34 -83 c-19 -46 -88
-215 -154 -375 -65 -161 -121 -293 -124 -293 -3 0 -75 169 -159 375 l-154 375
-107 0 c-59 0 -110 -3 -113 -7z"/>
<path d="M13280 2910 l0 -90 -55 0 -55 0 0 -70 0 -70 54 0 55 0 3 -253 3 -254
28 -41 c15 -24 45 -51 70 -63 73 -38 245 -36 240 2 -1 8 -7 39 -13 69 l-10 55
-50 0 c-85 0 -85 0 -88 260 l-3 225 81 0 81 0 -3 68 -3 67 -77 3 -78 3 0 89 0
90 -90 0 -90 0 0 -90z"/>
<path d="M11340 2807 c-40 -21 -53 -35 -97 -103 -10 -16 -12 -8 -12 49 l-1 67
-85 0 -85 0 0 -385 0 -385 90 0 89 0 3 258 3 259 27 35 c38 50 101 73 173 64
l56 -6 -3 82 -3 83 -55 3 c-43 2 -65 -3 -100 -21z"/>
<path d="M11815 2816 c-145 -46 -232 -151 -257 -311 -23 -147 19 -293 108
-375 55 -51 109 -75 193 -89 124 -20 252 14 327 87 32 31 82 118 72 127 -1 2
-39 7 -83 12 l-80 8 -20 -30 c-29 -43 -79 -65 -150 -65 -103 0 -171 59 -190
162 l-7 38 268 2 269 3 3 39 c5 60 -16 165 -44 223 -36 74 -110 138 -191 163
-73 23 -158 25 -218 6z m154 -136 c60 -17 121 -90 121 -145 l0 -25 -180 0
-180 0 6 28 c16 64 54 110 114 136 41 18 73 20 119 6z"/>
<path d="M12630 2817 c-75 -22 -119 -47 -159 -94 -39 -44 -66 -99 -53 -107 4
-2 34 -7 67 -10 33 -4 67 -9 75 -12 10 -2 23 8 33 26 53 90 226 93 262 6 35
-83 14 -101 -134 -121 -129 -17 -181 -29 -233 -56 -79 -40 -118 -136 -98 -235
24 -114 113 -177 250 -177 91 0 150 23 198 77 l32 37 0 -51 0 -50 91 0 90 0
-3 298 c-3 285 -4 299 -25 339 -28 51 -83 98 -142 119 -62 21 -194 27 -251 11z
m240 -459 c0 -67 -28 -128 -71 -159 -43 -31 -141 -39 -187 -15 -87 45 -60 159
44 184 44 11 183 38 202 41 8 1 12 -15 12 -51z"/>
<path d="M13989 2817 c-185 -53 -290 -238 -259 -459 32 -226 202 -350 433
-318 92 13 146 39 200 93 39 38 77 110 65 122 -2 2 -40 7 -84 11 -79 6 -80 6
-98 -20 -29 -45 -74 -66 -140 -66 -109 0 -183 59 -194 155 l-5 45 268 0 268 0
-6 88 c-3 48 -13 111 -23 141 -24 72 -105 161 -176 191 -64 27 -183 36 -249
17z m164 -141 c61 -22 93 -62 111 -138 l6 -28 -180 0 c-175 0 -180 1 -180 20
0 27 32 90 58 113 25 23 87 46 122 46 14 0 42 -6 63 -13z"/>
<path d="M14885 2811 c-44 -20 -74 -50 -98 -96 l-16 -30 -1 68 0 67 -90 0 -90
0 0 -385 0 -385 95 0 95 0 0 254 c0 246 1 254 23 287 35 53 99 82 170 76 l57
-5 0 84 0 84 -52 0 c-30 0 -71 -9 -93 -19z"/>
<path d="M16632 2814 c-67 -18 -84 -27 -134 -72 -41 -37 -84 -109 -73 -120 4
-4 41 -12 83 -18 57 -8 78 -8 81 0 9 26 74 76 107 82 98 18 174 -27 174 -105
0 -21 -6 -44 -14 -50 -7 -6 -64 -18 -127 -26 -187 -25 -259 -54 -305 -123 -27
-40 -38 -113 -26 -170 26 -112 116 -176 251 -176 92 0 155 26 201 82 l30 37 0
-53 0 -52 90 0 90 0 0 268 c-1 283 -6 335 -46 394 -63 97 -234 142 -382 102z
m245 -469 c-11 -117 -57 -167 -163 -173 -97 -6 -144 27 -144 101 0 42 40 81
98 96 41 10 179 37 201 40 11 1 13 -12 8 -64z"/>
<path d="M17155 2803 c3 -10 67 -188 141 -395 l133 -378 -19 -44 c-25 -59 -56
-79 -117 -74 l-47 3 -19 -63 c-12 -38 -16 -67 -10 -73 5 -5 36 -12 70 -15 116
-12 216 32 267 118 14 24 91 228 172 453 80 226 152 427 160 448 l13 37 -97 0
-97 0 -68 -223 c-37 -122 -77 -253 -88 -290 -12 -37 -24 -65 -27 -62 -3 3 -45
133 -92 288 l-86 282 -98 3 c-91 3 -98 1 -91 -15z"/>
<path d="M4680 990 l0 -810 660 0 660 0 0 810 0 810 -660 0 -660 0 0 -810z"/>
<path d="M10242 1364 c-71 -19 -106 -38 -159 -87 -79 -73 -108 -164 -83 -265
25 -105 118 -171 315 -223 202 -53 245 -82 245 -165 0 -53 -42 -106 -98 -125
-51 -18 -169 -15 -213 5 -44 18 -88 68 -96 107 l-5 29 -94 0 -93 0 6 -38 c8
-56 46 -133 84 -171 140 -140 475 -142 617 -3 55 54 82 118 82 196 0 77 -16
119 -64 173 -56 62 -121 94 -266 133 -144 38 -185 56 -217 94 -21 25 -24 37
-20 73 2 24 13 53 23 65 31 34 94 58 157 58 95 0 166 -40 187 -106 l12 -34 90
0 90 0 -7 38 c-30 162 -176 263 -378 261 -34 0 -86 -7 -115 -15z"/>
<path d="M11633 1366 c-170 -42 -295 -175 -339 -363 -22 -95 -15 -274 15 -363
43 -127 142 -235 258 -281 50 -21 75 -24 188 -24 125 0 132 1 197 32 164 78
238 210 238 430 l0 83 -207 -2 -208 -3 -3 -72 -3 -73 122 0 121 0 -6 -37 c-13
-72 -48 -126 -104 -159 -125 -75 -295 -42 -371 73 -50 76 -64 137 -59 272 5
130 21 180 79 246 115 130 347 108 419 -40 l22 -45 95 0 95 0 -7 28 c-53 219
-302 356 -542 298z"/>
<path d="M12693 1365 c-206 -56 -331 -221 -349 -459 -17 -222 65 -416 218
-512 130 -83 351 -87 484 -9 95 55 157 136 188 243 l15 52 -92 0 -92 0 -25
-52 c-72 -150 -288 -182 -412 -61 -59 57 -90 141 -96 253 -11 239 97 390 282
390 28 0 68 -5 90 -11 51 -14 121 -80 142 -135 l17 -44 92 0 93 0 -9 43 c-23
105 -110 216 -207 266 -97 50 -234 64 -339 36z"/>
<path d="M15521 1365 c-81 -23 -145 -62 -205 -125 -98 -103 -136 -210 -136
-387 0 -172 38 -286 130 -386 92 -100 208 -143 372 -135 86 3 104 8 171 41
112 55 198 162 222 275 l7 32 -94 0 -94 0 -13 -36 c-17 -48 -65 -101 -115
-126 -31 -16 -60 -21 -116 -22 -120 0 -191 44 -244 150 -53 105 -56 288 -7
398 64 145 232 209 370 140 57 -29 105 -85 116 -135 l7 -29 94 0 c52 0 94 4
94 8 0 5 -7 33 -16 63 -35 117 -132 219 -250 261 -78 27 -219 34 -293 13z"/>
<path d="M10920 855 l0 -515 90 0 90 0 0 515 0 515 -90 0 -90 0 0 -515z"/>
<path d="M13420 855 l0 -515 90 0 90 0 0 220 0 220 238 -2 237 -3 3 -217 2
-218 90 0 90 0 0 515 0 515 -90 0 -90 0 0 -220 0 -220 -240 0 -240 0 0 220 0
220 -90 0 -90 0 0 -515z"/>
<path d="M14467 1363 c-4 -3 -7 -235 -7 -515 l0 -508 95 0 95 0 0 515 0 515
-88 0 c-49 0 -92 -3 -95 -7z"/>
<path d="M16247 1364 c-4 -4 -7 -236 -7 -516 l0 -508 90 0 90 0 0 231 c0 133
5 248 11 273 26 103 147 150 248 97 12 -7 31 -31 42 -54 17 -38 19 -68 19
-294 l0 -253 90 0 90 0 0 278 c0 327 -5 358 -75 427 -114 115 -330 93 -403
-40 -16 -29 -17 -23 -22 165 l-5 195 -80 3 c-45 1 -84 0 -88 -4z"/>
<path d="M18850 1200 l0 -90 -55 0 -55 0 0 -70 0 -70 55 0 55 0 0 -242 c0
-216 3 -248 19 -284 37 -81 127 -121 247 -111 36 2 68 8 71 11 4 3 0 37 -7 74
l-13 68 -49 0 c-41 -1 -53 3 -69 23 -17 21 -19 41 -19 242 l0 219 75 0 75 0 0
70 0 70 -75 0 -75 0 0 90 0 90 -90 0 -90 0 0 -90z"/>
<path d="M17310 1105 c-78 -22 -138 -62 -177 -119 -48 -70 -43 -79 52 -92 46
-7 81 -7 83 -2 11 27 57 68 88 78 20 7 59 10 87 7 67 -6 107 -47 107 -108 0
-36 -3 -41 -32 -53 -18 -7 -80 -19 -137 -25 -215 -25 -310 -97 -311 -232 0
-141 99 -232 254 -233 86 0 152 26 202 81 l34 37 0 -52 0 -52 85 0 85 0 0 289
c0 193 -4 299 -12 322 -19 58 -57 97 -124 130 -78 38 -195 48 -284 24z m240
-468 c0 -80 -23 -124 -81 -155 -36 -19 -55 -23 -108 -20 -55 4 -67 8 -87 32
-28 32 -32 90 -9 123 17 24 76 44 195 66 41 8 78 15 83 16 4 0 7 -27 7 -62z"/>
<path d="M18236 1104 c-46 -17 -69 -35 -106 -86 -15 -21 -30 -34 -34 -31 -3 3
-6 33 -6 65 l0 58 -85 0 -85 0 0 -530 0 -530 90 0 90 0 0 206 0 206 33 -43
c47 -62 104 -89 187 -89 123 0 212 52 267 157 43 82 57 153 51 270 -7 133 -33
200 -107 273 -84 83 -195 111 -295 74z m107 -148 c76 -32 110 -104 111 -231 0
-79 -3 -98 -27 -147 -39 -79 -77 -102 -162 -96 -55 3 -69 8 -96 33 -59 56 -86
163 -69 275 22 141 130 214 243 166z"/>
<path d="M19555 1106 c-204 -65 -305 -270 -249 -506 36 -152 135 -244 293
-269 124 -20 252 14 327 87 32 31 82 118 72 127 -1 2 -39 7 -83 12 l-80 8 -20
-30 c-29 -43 -79 -65 -150 -65 -103 0 -171 59 -190 162 l-7 38 268 2 269 3 3
39 c5 60 -16 165 -44 223 -36 74 -110 138 -191 163 -73 23 -158 25 -218 6z
m155 -136 c59 -16 120 -93 120 -151 0 -18 -9 -19 -180 -19 l-180 0 6 28 c16
64 54 110 114 136 41 18 72 19 120 6z"/>
<path d="M20455 1101 c-45 -21 -89 -64 -104 -101 -8 -20 -10 -13 -10 43 l-1
67 -90 0 -90 0 0 -385 0 -385 90 0 90 0 0 240 c0 268 3 284 63 337 42 37 88
48 152 39 l45 -7 0 85 0 86 -52 0 c-30 0 -70 -9 -93 -19z"/>
</g>
</svg>
